<svg height="414" viewBox="0 0 400 414" width="400" xmlns="http://www.w3.org/2000/svg"><path d="m180.4.242c-4.638.374-13.062 1.483-13.6 1.791-.353.201 2.121.35 6 .36 51.387.137 87.735 15.365 104.965 43.975 7.934 13.172 7.984 13.941 8.415 128.232.123 32.78.326 63.83.449 69l.225 9.4-1.945-3.6c-5.245-9.707-65.039-129.625-66.511-133.39-.74-1.89-2.482-8.519-3.051-11.61-.102-.55-.376-1.72-.609-2.6-.515-1.939-.7-3.026-1.361-8-.146-1.1-.317-2.27-.379-2.6s-.241-1.797-.398-3.26l-.285-2.66-6.057-.229c-3.332-.125-10.603-.327-16.158-.448l-10.1-.219v1.259c0 1.248-.015 1.257-1.62 1-2.32-.371-8.606-2.429-14.18-4.643-31.335-12.446-64.754-8.958-97 10.122-4.551 2.693-11.6 7.517-11.6 7.939 0 .187-.2.339-.444.339-.393 0-3.36 2.261-5.227 3.982-.368.34-1.448 1.246-2.4 2.014-37.88 30.584-56.008 87.397-43.955 137.754 9.497 39.678 40.072 76.58 75.719 91.388 24.467 10.164 56.082 11.455 76.066 3.105.682-.285 1.377-.545 1.543-.578 5.637-1.102 24.298-15.548 24.298-18.81 0-.25.18-.455.4-.455s.4-.27.4-.6.145-.6.323-.6 1.632-2.655 3.232-5.9c1.599-3.245 3.174-6.395 3.499-7s.487-1.1.359-1.1c-.127 0 .063-.45.424-1 .36-.55.522-1 .36-1s-.117-.225.1-.5c1.024-1.296 2.231-6.276 2.351-9.7.322-9.212.752-50.377.752-72.079 0-18.023.113-23.858.448-23.2 15.803 31.029 50.758 98.345 59.831 115.226 11.826 22 14.116 27.434 15.154 35.953 1.522 12.499-4.934 25.782-17.396 35.79-1.56 1.253-2.897 2.42-2.97 2.594-.074.174-.309.316-.522.316-.214 0-1.414.696-2.667 1.546-11.598 7.871-22.979 11.993-46.543 16.858-17.475 3.608-35.841 2.708-66.278-3.248-7.75-1.517-7.813-1.384-.549 1.159 27.814 9.738 53.921 13.348 81.784 11.309 23.238-1.7 51.895-8.519 66.271-15.769 1.01-.509 3.889-1.9 6.397-3.091 2.507-1.19 4.757-2.345 5-2.565.242-.221 1.385-.837 2.54-1.369s2.1-1.096 2.1-1.255.437-.398.972-.532 1.218-.469 1.519-.744c.301-.274 1.349-.93 2.328-1.457 14.564-7.839 35.222-24.754 48.17-39.442 3.65-4.14 11.411-13.917 11.411-14.375 0-.143.45-.745 1-1.338.55-.594 1-1.306 1-1.583s.18-.504.4-.504.4-.27.4-.6.18-.6.4-.6.4-.27.4-.6.18-.6.4-.6.4-.27.4-.6.18-.6.4-.6.4-.27.4-.6.18-.6.4-.6.4-.27.4-.6.148-.6.329-.6.731-.765 1.222-1.7 1.241-2.24 1.667-2.9c.425-.66.997-1.65 1.27-2.2.272-.55.613-1.09.757-1.2.143-.11.597-.863 1.008-1.674 5.137-10.132 7.419-14.745 7.424-15.008.004-.175.455-1.083 1.003-2.018s.874-1.7.725-1.7c-.148 0 .119-.63.595-1.4s.756-1.4.623-1.4.053-.45.414-1c.36-.55.54-1 .4-1-.141 0 .039-.45.4-1 .36-.55.54-1 .4-1-.141 0 .01-.405.334-.9.325-.495.62-1.08.657-1.3s.244-.85.46-1.4c.215-.55.45-1.27.521-1.6s.166-.645.21-.7c.045-.055.106-.235.137-.4s.164-.48.296-.7c.296-.492 3.105-8.961 3.327-10.028.088-.425.437-1.54.775-2.478s.627-1.838.642-2 .221-1.013.457-1.892c.237-.88.502-1.915.589-2.3.087-.386.248-1.062.358-1.502s.29-1.16.4-1.6.29-1.16.4-1.6.283-1.115.385-1.5c.581-2.204 1.377-5.687 1.576-6.9.224-1.366.617-3.398.813-4.2.135-.554.592-2.994.787-4.2.089-.55.269-1.45.401-2s.315-1.63.407-2.4.272-2.12.4-3c.597-4.117.728-7.606.913-24.299.172-15.46-.15-28.181-.837-33.101-.076-.55-.263-1.99-.415-3.2s-.363-2.501-.47-2.868c-.275-.95-.549-2.308-.797-3.964-.195-1.299-2.69-12.388-3.165-14.068-.289-1.02-.61-2.359-.842-3.5-4.384-21.651-22.067-56.577-38.073-75.2-.473-.55-1.965-2.35-3.315-4-2.704-3.303-2.887-3.509-7.419-8.391-29.948-32.257-74.333-55.879-113.549-60.433-3.737-.434-46.271-.882-50.6-.534m-44.756 121.195c4.131.777 13.163 3.892 13.152 4.537-.002.124-1.332.629-2.955 1.122-3.442 1.045-7.468 3.838-8.249 5.723-.407.983-.468 16.455-.306 77.863.162 61.244.099 77.229-.311 79.588-2.75 15.839-28.082 13.385-40.835-3.956-4.895-6.656-5.962-10.527-6.754-24.514-.125-2.2-.3-5.26-.39-6.8-.881-15.097-1.045-75.243-.246-90.125.588-10.959 1.067-15.153 1.989-17.401.253-.619.461-1.242.461-1.384 0-.303 3.305-6.995 3.6-7.29.434-.434 2-2.781 2-2.997 0-.573 6.445-6.869 8.6-8.402 8.494-6.04 18.909-8.094 30.244-5.964" fill="#24acdc" fill-rule="evenodd"/></svg>