<svg id="Capa_1" data-name="Capa 1" xmlns="http://www.w3.org/2000/svg" viewBox="0 0 1027.12 892.09"><defs><style>.cls-1{fill:none;}.cls-1,.cls-2{stroke:#104dae;stroke-miterlimit:10;}.cls-2{fill:#104dae;}</style></defs><title>pattern-2</title><line class="cls-1" x1="474.09" y1="865.91" x2="449.22" y2="890.78"/><line class="cls-1" x1="442.92" y1="872.4" x2="425.84" y2="889.48"/><line class="cls-1" x1="442.92" y1="821.76" x2="373.9" y2="890.78"/><polyline class="cls-1" points="442.92 798.43 402.61 838.51 382.89 838.51 335.39 886.51 316.89 886.51 312.14 891.25"/><polyline class="cls-1" points="355.14 829.81 310.71 874.51 296.89 874.51 280.64 890.75"/><polyline class="cls-1" points="340.89 785.48 295.39 830.73 295.39 850.98 259.39 887.51 240.9 887.51 237.77 890.62"/><line class="cls-1" x1="286.9" y1="812.98" x2="208.4" y2="891.48"/><line class="cls-1" x1="247.65" y1="821.76" x2="178.66" y2="890.74"/><polyline class="cls-1" points="258.64 789.09 211.49 836.51 198.9 836.51 144.65 890.75"/><polyline class="cls-1" points="309.14 741.14 285.89 764.51 253.9 764.51 183.18 835.51 175.9 835.51 120.64 890.75"/><path class="cls-1" d="M332.63,621.26c-1.5,1-56.12,56.24-56.12,56.24H246l-69.24,72H159l-67,76" transform="translate(1.9 66.01)"/><polyline class="cls-1" points="59.02 891.04 117.39 829.51 133.9 829.51 230.9 727.51 258.89 727.51 296.89 687.51 321.89 687.51 384.89 622"/><polyline class="cls-1" points="354.52 628.28 320.39 665.51 296.89 665.51 258.64 707.51 224.9 707.51 170.9 765.51 144.9 765.51 115.39 795.48 115.39 812.98 91.39 839.51 73.89 839.51 26.39 890.63"/><polyline class="cls-1" points="0.65 891.74 139.9 744.51 162.9 744.51 235.4 667.51 265.89 667.51 349.89 579"/><polyline class="cls-1" points="347.52 558.74 312.14 595.51 293.89 595.51 247.65 645.51 226.9 645.51 148.9 728.51 120.89 728.51 0.9 852.25"/><polyline class="cls-1" points="0.61 824.74 109.39 709.51 135.9 709.51 208.4 632.51 221.9 632.51 269.89 582"/><polyline class="cls-1" points="249.65 542.48 208.27 586.23 205.83 606.87 171.9 644.51 151.9 644.51 99.39 701.51 85.89 701.51 0.9 793.49"/><polyline class="cls-1" points="1.02 759.95 101.89 652.51 120.89 652.51 197.9 567.5"/><polyline class="cls-1" points="155.9 576.99 54.4 685.51 39.9 685.51 0.61 729"/><path class="cls-1" d="M-0.87,627.48L49,573.5H65c-1.5,0,47.5-50.51,47.5-50.51" transform="translate(1.9 66.01)"/><polyline class="cls-1" points="174.77 530.85 148.9 558.51 113.89 558.51 48.4 628.51 36.9 628.51 0.9 670.5"/><polyline class="cls-1" points="0.9 636.24 26.39 610.51 40.9 610.51 107.39 538.51 144.9 538.51 197.9 479"/><polyline class="cls-1" points="0.71 617.74 94.39 517.51 124.89 517.51 159.9 479.51 186.9 479.51 249.65 411.5"/><polyline class="cls-1" points="218.43 421.18 183.4 457.51 160.9 457.51 120.89 499.51 87.89 499.51 33.9 557.51 8.89 557.51 0.61 567.5"/><polyline class="cls-1" points="0.61 539.49 4.89 534.51 26.89 534.51 99.39 458.51 130.9 458.51 215.9 367.99 302.89 275.49"/><polyline class="cls-1" points="216.04 347.76 179.9 387.51 155.9 387.51 112.89 436.51 91.89 436.51 13.89 520.51 0.9 520.51"/><polyline class="cls-1" points="0.36 501.49 72.89 424.51 84.89 424.51 136.4 370"/><path class="cls-1" d="M-1,386.47S11,369,12.5,369.72s23,0,23,0l34-37.25V312l43-45.5" transform="translate(1.9 66.01)"/><line class="cls-1" x1="0.9" y1="424.48" x2="61.9" y2="359.48"/><line class="cls-2" x1="20.4" y1="369.98" x2="0.36" y2="388.98"/><rect class="cls-2" x="16.15" y="364.56" width="8.5" height="8.5" rx="4.25" ry="4.25"/><rect class="cls-2" x="57.65" y="355.23" width="8.5" height="8.5" rx="4.25" ry="4.25"/><rect class="cls-2" x="132.15" y="365.73" width="8.5" height="8.5" rx="4.25" ry="4.25"/><rect class="cls-2" x="193.65" y="474.73" width="8.5" height="8.5" rx="4.25" ry="4.25"/><rect class="cls-2" x="95.15" y="455.48" width="8.5" height="8.5" rx="4.25" ry="4.25"/><rect class="cls-2" x="68.65" y="420.23" width="8.5" height="8.5" rx="4.25" ry="4.25"/><rect class="cls-2" x="209.96" y="345.23" width="8.5" height="8.5" rx="4.25" ry="4.25"/><rect class="cls-2" x="110.15" y="328.23" width="8.5" height="8.5" rx="4.25" ry="4.25"/><rect class="cls-2" x="53.46" y="553.35" width="8.5" height="8.5" rx="4.25" ry="4.25"/><rect class="cls-2" x="6.13" y="554.48" width="8.5" height="8.5" rx="4.25" ry="4.25"/><rect class="cls-2" x="169.96" y="526.58" width="8.5" height="8.5" rx="4.25" ry="4.25"/><rect class="cls-2" x="245.4" y="538.23" width="8.5" height="8.5" rx="4.25" ry="4.25"/><rect class="cls-2" x="193.65" y="563.23" width="8.5" height="8.5" rx="4.25" ry="4.25"/><rect class="cls-2" x="151.65" y="572.73" width="8.5" height="8.5" rx="4.25" ry="4.25"/><rect class="cls-2" x="205.71" y="628.26" width="8.5" height="8.5" rx="4.25" ry="4.25"/><rect class="cls-2" x="263.98" y="579.62" width="8.5" height="8.5" rx="4.25" ry="4.25"/><rect class="cls-2" x="380.65" y="617.73" width="8.5" height="8.5" rx="4.25" ry="4.25"/><rect class="cls-2" x="350.27" y="624.01" width="8.5" height="8.5" rx="4.25" ry="4.25"/><rect class="cls-2" x="330.27" y="683" width="8.5" height="8.5" rx="4.25" ry="4.25"/><rect class="cls-2" x="231.15" y="663.23" width="8.5" height="8.5" rx="4.25" ry="4.25"/><rect class="cls-2" x="110.15" y="583.87" width="8.5" height="8.5" rx="4.25" ry="4.25"/><rect class="cls-2" x="31.4" y="624.01" width="8.5" height="8.5" rx="4.25" ry="4.25"/><rect class="cls-2" x="304.9" y="736.87" width="8.5" height="8.5" rx="4.25" ry="4.25"/><rect class="cls-2" x="189.4" y="759.93" width="8.5" height="8.5" rx="4.25" ry="4.25"/><rect class="cls-2" x="57.65" y="784.82" width="8.5" height="8.5" rx="4.25" ry="4.25"/><rect class="cls-2" x="53.46" y="726.23" width="8.5" height="8.5" rx="4.25" ry="4.25"/><rect class="cls-2" x="243.4" y="817.51" width="8.5" height="8.5" rx="4.25" ry="4.25"/><rect class="cls-2" x="170.52" y="833.79" width="8.5" height="8.5" rx="4.25" ry="4.25"/><rect class="cls-2" x="140.65" y="761.23" width="8.5" height="8.5" rx="4.25" ry="4.25"/><rect class="cls-2" x="292.77" y="869.85" width="8.5" height="8.5" rx="4.25" ry="4.25"/><rect class="cls-2" x="336.65" y="781.23" width="8.5" height="8.5" rx="4.25" ry="4.25"/><rect class="cls-2" x="438.67" y="794.16" width="8.5" height="8.5" rx="4.25" ry="4.25"/><rect class="cls-2" x="438.67" y="868.15" width="8.5" height="8.5" rx="4.25" ry="4.25"/><rect class="cls-2" x="469.84" y="860.26" width="8.5" height="8.5" rx="4.25" ry="4.25"/><rect class="cls-2" x="254.4" y="784.82" width="8.5" height="8.5" rx="4.25" ry="4.25"/><rect class="cls-2" x="282.65" y="807.42" width="8.5" height="8.5" rx="4.25" ry="4.25"/><rect class="cls-2" x="438.67" y="817.51" width="8.5" height="8.5" rx="4.25" ry="4.25"/><rect class="cls-2" x="357.06" y="753.4" width="8.5" height="8.5" rx="4.25" ry="4.25" transform="translate(-431.46 553.31) rotate(-45.72)"/><rect class="cls-2" x="365.96" y="744.27" width="8.5" height="8.5" rx="4.25" ry="4.25" transform="translate(-461 757.28) rotate(-59.75)"/><rect class="cls-2" x="376.09" y="733.89" width="8.5" height="8.5" rx="4.25" ry="4.25" transform="translate(-447 760.87) rotate(-59.75)"/><rect class="cls-2" x="386.57" y="723.14" width="8.5" height="8.5" rx="4.25" ry="4.25" transform="translate(-432.52 764.59) rotate(-59.75)"/><rect class="cls-2" x="395.78" y="713.7" width="8.5" height="8.5" rx="4.25" ry="4.25" transform="translate(-419.8 767.86) rotate(-59.75)"/><rect class="cls-2" x="406.3" y="702.91" width="8.5" height="8.5" rx="4.25" ry="4.25" transform="translate(-405.25 771.6) rotate(-59.75)"/><rect class="cls-2" x="290.72" y="730.56" width="7.44" height="7.44" rx="3.72" ry="3.72" transform="translate(-434.91 498.39) rotate(-45.72)"/><rect class="cls-2" x="298.52" y="722.57" width="7.44" height="7.44" rx="3.72" ry="3.72" transform="translate(-475.53 687.53) rotate(-59.75)"/><rect class="cls-2" x="307.38" y="713.48" width="7.44" height="7.44" rx="3.72" ry="3.72" transform="translate(-463.28 690.67) rotate(-59.75)"/><rect class="cls-2" x="316.56" y="704.07" width="7.44" height="7.44" rx="3.72" ry="3.72" transform="matrix(0.5, -0.86, 0.86, 0.5, -450.6, 693.93)"/><rect class="cls-2" x="324.62" y="695.81" width="7.44" height="7.44" rx="3.72" ry="3.72" transform="translate(-439.46 696.79) rotate(-59.75)"/><rect class="cls-2" x="333.83" y="686.36" width="7.44" height="7.44" rx="3.72" ry="3.72" transform="translate(-426.72 700.06) rotate(-59.75)"/><rect class="cls-2" x="162.22" y="494.85" width="7.44" height="7.44" rx="3.72" ry="3.72" transform="translate(-304.94 335.26) rotate(-45.72)"/><rect class="cls-2" x="170.02" y="486.86" width="7.44" height="7.44" rx="3.72" ry="3.72" transform="translate(-335.67 459.55) rotate(-59.75)"/><rect class="cls-2" x="178.88" y="477.77" width="7.44" height="7.44" rx="3.72" ry="3.72" transform="translate(-323.42 462.69) rotate(-59.75)"/><rect class="cls-2" x="188.06" y="468.36" width="7.44" height="7.44" rx="3.72" ry="3.72" transform="translate(-310.74 465.95) rotate(-59.75)"/><rect class="cls-2" x="196.12" y="460.09" width="7.44" height="7.44" rx="3.72" ry="3.72" transform="translate(-299.6 468.81) rotate(-59.75)"/><rect class="cls-2" x="205.33" y="450.64" width="7.44" height="7.44" rx="3.72" ry="3.72" transform="translate(-286.86 472.08) rotate(-59.75)"/><rect class="cls-2" x="255.25" y="330.12" width="7.44" height="7.44" rx="3.72" ry="3.72" transform="translate(-161.28 382.34) rotate(-49.82)"/><rect class="cls-2" x="262.45" y="321.59" width="7.44" height="7.44" rx="3.72" ry="3.72" transform="translate(-141.24 486.95) rotate(-63.86)"/><rect class="cls-2" x="270.64" y="311.89" width="7.44" height="7.44" rx="3.72" ry="3.72" transform="translate(-127.95 488.87) rotate(-63.86)"/><rect class="cls-2" x="279.12" y="301.85" width="7.44" height="7.44" rx="3.72" ry="3.72" transform="translate(-114.19 490.87) rotate(-63.86)"/><rect class="cls-2" x="286.57" y="293.03" width="7.44" height="7.44" rx="3.72" ry="3.72" transform="translate(-102.11 492.62) rotate(-63.86)"/><rect class="cls-2" x="295.09" y="282.94" width="7.44" height="7.44" rx="3.72" ry="3.72" transform="translate(-88.29 494.62) rotate(-63.86)"/><rect class="cls-2" x="120.94" y="248.69" width="7.44" height="7.44" rx="3.72" ry="3.72" transform="translate(-141.18 231.42) rotate(-45.72)"/><rect class="cls-2" x="128.73" y="240.7" width="7.44" height="7.44" rx="3.72" ry="3.72" transform="translate(-143.52 301.72) rotate(-59.75)"/><rect class="cls-2" x="137.59" y="231.61" width="7.44" height="7.44" rx="3.72" ry="3.72" transform="matrix(0.5, -0.86, 0.86, 0.5, -131.27, 304.87)"/><rect class="cls-2" x="146.77" y="222.2" width="7.44" height="7.44" rx="3.72" ry="3.72" transform="translate(-118.59 308.13) rotate(-59.75)"/><rect class="cls-2" x="154.83" y="213.94" width="7.44" height="7.44" rx="3.72" ry="3.72" transform="translate(-107.45 310.99) rotate(-59.75)"/><rect class="cls-2" x="164.05" y="204.49" width="7.44" height="7.44" rx="3.72" ry="3.72" transform="translate(-94.71 314.26) rotate(-59.75)"/><rect class="cls-2" x="214.18" y="416.91" width="8.5" height="8.5" rx="4.25" ry="4.25"/><rect class="cls-2" x="245.4" y="407.23" width="8.5" height="8.5" rx="4.25" ry="4.25"/><rect class="cls-1" x="12.73" y="361.14" width="15.33" height="15.33" rx="7.67" ry="7.67"/><rect class="cls-1" x="65.23" y="416.81" width="15.33" height="15.33" rx="7.67" ry="7.67"/><rect class="cls-1" x="91.73" y="452.06" width="15.33" height="15.33" rx="7.67" ry="7.67"/><rect class="cls-1" x="106.73" y="324.81" width="15.33" height="15.33" rx="7.67" ry="7.67"/><rect class="cls-1" x="206.54" y="341.81" width="15.33" height="15.33" rx="7.67" ry="7.67"/><rect class="cls-1" x="241.98" y="403.81" width="15.33" height="15.33" rx="7.67" ry="7.67"/><polyline class="cls-1" points="4.89 366.24 30.39 340.51 44.9 340.51 111.39 268.51 148.9 268.51 201.9 209"/><polyline class="cls-1" points="4.71 347.74 98.39 247.51 128.9 247.51 163.9 209.51 190.9 209.51 253.65 141.5"/><polyline class="cls-1" points="222.43 151.18 187.4 187.51 164.9 187.51 124.89 229.51 91.89 229.51 37.9 287.51 12.89 287.51 4.61 297.5"/><polyline class="cls-1" points="4.61 269.49 8.89 264.51 30.89 264.51 103.39 188.51 134.9 188.51 219.9 97.99 306.89 5.49"/><polyline class="cls-1" points="220.04 77.76 183.9 117.51 159.9 117.51 116.89 166.51 95.89 166.51 17.89 250.51 4.89 250.51"/><polyline class="cls-1" points="4.36 231.49 76.89 154.51 88.89 154.51 140.4 100"/><path class="cls-1" d="M3,116.47S15,99,16.5,99.72s23,0,23,0l34-37.25V42l43-45.5" transform="translate(1.9 66.01)"/><line class="cls-1" x1="4.9" y1="154.48" x2="65.9" y2="89.48"/><line class="cls-2" x1="24.4" y1="99.98" x2="4.36" y2="118.98"/><rect class="cls-2" x="20.15" y="94.56" width="8.5" height="8.5" rx="4.25" ry="4.25"/><rect class="cls-2" x="61.65" y="85.23" width="8.5" height="8.5" rx="4.25" ry="4.25"/><rect class="cls-2" x="136.15" y="95.73" width="8.5" height="8.5" rx="4.25" ry="4.25"/><rect class="cls-2" x="197.65" y="204.73" width="8.5" height="8.5" rx="4.25" ry="4.25"/><rect class="cls-2" x="99.15" y="185.48" width="8.5" height="8.5" rx="4.25" ry="4.25"/><rect class="cls-2" x="72.65" y="150.23" width="8.5" height="8.5" rx="4.25" ry="4.25"/><rect class="cls-2" x="213.96" y="75.23" width="8.5" height="8.5" rx="4.25" ry="4.25"/><rect class="cls-2" x="114.15" y="58.23" width="8.5" height="8.5" rx="4.25" ry="4.25"/><rect class="cls-2" x="259.25" y="60.12" width="7.44" height="7.44" rx="3.72" ry="3.72" transform="translate(46.43 289.59) rotate(-49.82)"/><rect class="cls-2" x="266.45" y="51.59" width="7.44" height="7.44" rx="3.72" ry="3.72" transform="translate(103.38 339.49) rotate(-63.86)"/><rect class="cls-2" x="274.64" y="41.89" width="7.44" height="7.44" rx="3.72" ry="3.72" transform="translate(116.67 341.42) rotate(-63.86)"/><rect class="cls-2" x="283.12" y="31.85" width="7.44" height="7.44" rx="3.72" ry="3.72" transform="translate(130.43 343.41) rotate(-63.86)"/><rect class="cls-2" x="290.57" y="23.03" width="7.44" height="7.44" rx="3.72" ry="3.72" transform="translate(142.51 345.17) rotate(-63.86)"/><rect class="cls-2" x="299.09" y="12.94" width="7.44" height="7.44" rx="3.72" ry="3.72" transform="translate(156.33 347.17) rotate(-63.86)"/><rect class="cls-2" x="124.94" y="-21.31" width="7.44" height="7.44" rx="3.72" ry="3.72" transform="translate(53.31 152.81) rotate(-45.72)"/><rect class="cls-2" x="132.73" y="-29.3" width="7.44" height="7.44" rx="3.72" ry="3.72" transform="matrix(0.5, -0.86, 0.86, 0.5, 91.71, 171.19)"/><rect class="cls-2" x="141.59" y="-38.39" width="7.44" height="7.44" rx="3.72" ry="3.72" transform="matrix(0.5, -0.86, 0.86, 0.5, 103.96, 174.34)"/><rect class="cls-2" x="150.77" y="-47.8" width="7.44" height="7.44" rx="3.72" ry="3.72" transform="translate(116.64 177.59) rotate(-59.75)"/><rect class="cls-2" x="158.83" y="-56.06" width="7.44" height="7.44" rx="3.72" ry="3.72" transform="translate(127.78 180.46) rotate(-59.75)"/><rect class="cls-2" x="168.05" y="-65.51" width="7.44" height="7.44" rx="3.72" ry="3.72" transform="translate(140.52 183.73) rotate(-59.75)"/><rect class="cls-2" x="218.18" y="146.91" width="8.5" height="8.5" rx="4.25" ry="4.25"/><rect class="cls-2" x="249.4" y="137.23" width="8.5" height="8.5" rx="4.25" ry="4.25"/><rect class="cls-1" x="16.73" y="91.14" width="15.33" height="15.33" rx="7.67" ry="7.67"/><rect class="cls-1" x="69.23" y="146.81" width="15.33" height="15.33" rx="7.67" ry="7.67"/><rect class="cls-1" x="95.73" y="182.06" width="15.33" height="15.33" rx="7.67" ry="7.67"/><rect class="cls-1" x="110.73" y="54.81" width="15.33" height="15.33" rx="7.67" ry="7.67"/><rect class="cls-1" x="210.54" y="71.81" width="15.33" height="15.33" rx="7.67" ry="7.67"/><rect class="cls-1" x="245.98" y="133.81" width="15.33" height="15.33" rx="7.67" ry="7.67"/><rect class="cls-1" x="50.04" y="549.93" width="15.33" height="15.33" rx="7.67" ry="7.67"/><rect class="cls-1" x="2.71" y="551.06" width="15.33" height="15.33" rx="7.67" ry="7.67"/><rect class="cls-1" x="166.54" y="523.17" width="15.33" height="15.33" rx="7.67" ry="7.67"/><rect class="cls-1" x="148.23" y="569.16" width="15.33" height="15.33" rx="7.67" ry="7.67"/><rect class="cls-1" x="241.98" y="534.81" width="15.33" height="15.33" rx="7.67" ry="7.67"/><rect class="cls-1" x="202.29" y="624.91" width="15.33" height="15.33" rx="7.67" ry="7.67"/><rect class="cls-1" x="377.23" y="614.31" width="15.33" height="15.33" rx="7.67" ry="7.67"/><rect class="cls-1" x="301.48" y="733.45" width="15.33" height="15.33" rx="7.67" ry="7.67"/><rect class="cls-1" x="185.98" y="756.52" width="15.33" height="15.33" rx="7.67" ry="7.67"/><rect class="cls-1" x="227.73" y="659.81" width="15.33" height="15.33" rx="7.67" ry="7.67"/><rect class="cls-1" x="137.23" y="757.81" width="15.33" height="15.33" rx="7.67" ry="7.67"/><rect class="cls-1" x="54.12" y="782.06" width="15.33" height="15.33" rx="7.67" ry="7.67"/><rect class="cls-1" x="49.98" y="722.81" width="15.33" height="15.33" rx="7.67" ry="7.67"/><rect class="cls-1" x="166.54" y="830.37" width="15.33" height="15.33" rx="7.67" ry="7.67"/><rect class="cls-1" x="239.98" y="814.09" width="15.33" height="15.33" rx="7.67" ry="7.67"/><rect class="cls-1" x="289.35" y="866.43" width="15.33" height="15.33" rx="7.67" ry="7.67"/><rect class="cls-1" x="333.23" y="777.06" width="15.33" height="15.33" rx="7.67" ry="7.67"/><rect class="cls-1" x="466.42" y="856.84" width="15.33" height="15.33" rx="7.67" ry="7.67"/><rect class="cls-1" x="435.25" y="790.75" width="15.33" height="15.33" rx="7.67" ry="7.67"/><line class="cls-1" x1="553.03" y1="33.38" x2="577.9" y2="8.51"/><line class="cls-1" x1="584.2" y1="26.89" x2="601.28" y2="9.81"/><line class="cls-1" x1="584.2" y1="77.54" x2="653.23" y2="8.51"/><polyline class="cls-1" points="584.2 100.73 624.51 60.51 644.23 60.51 691.73 12.51 710.23 12.51 714.98 7.84"/><polyline class="cls-1" points="671.98 69.35 716.41 24.51 730.23 24.51 746.48 8.34"/><polyline class="cls-1" points="686.06 113.82 731.39 68.57 731.39 48.32 767.73 11.51 786.23 11.51 789.27 8.54"/><line class="cls-1" x1="740.23" y1="86.32" x2="818.73" y2="7.82"/><line class="cls-1" x1="779.48" y1="77.54" x2="848.46" y2="8.55"/><polyline class="cls-1" points="768.48 110.07 815.63 62.51 828.23 62.51 882.48 8.34"/><polyline class="cls-1" points="717.98 158.02 741.23 134.51 773.23 134.51 843.94 63.51 851.23 63.51 906.48 8.34"/><path class="cls-1" d="M690.71,145.88c1.5-1,56.13-56.38,56.13-56.38h30.5l69.24-72h17.76l67-75.92" transform="translate(1.9 66.01)"/><polyline class="cls-1" points="968.1 8.12 909.73 69.51 893.23 69.51 796.23 171.51 768.23 171.51 730.23 211.51 705.23 211.51 642.23 277.09"/><polyline class="cls-1" points="672.6 270.88 706.73 233.51 730.23 233.51 768.48 191.51 802.23 191.51 856.23 133.51 882.23 133.51 911.39 103.82 911.39 86.32 935.73 59.51 953.23 59.51 1000.73 8.46"/><polyline class="cls-1" points="1026.47 7.41 887.23 154.51 864.23 154.51 791.73 231.51 761.23 231.51 677.23 320.09"/><polyline class="cls-1" points="679.6 340.41 714.98 303.51 733.23 303.51 779.48 253.51 800.23 253.51 878.23 170.51 906.23 170.51 1026.22 46.84"/><polyline class="cls-1" points="1026.51 74.41 917.73 189.51 891.23 189.51 818.73 266.51 805.23 266.51 757.23 317.09"/><polyline class="cls-1" points="777.48 356.82 818.85 313.07 821.29 292.29 855.23 254.51 875.23 254.51 927.73 197.51 941.23 197.51 1026.22 105.66"/><polyline class="cls-1" points="1026.1 139.21 925.23 246.51 906.23 246.51 829.23 331.59"/><polyline class="cls-1" points="871.23 322.16 972.73 213.51 987.23 213.51 1026.51 170.09"/><path class="cls-1" d="M1024.21,139.65L974.33,193.5h-16c1.5,0-47.5,50.58-47.5,50.58" transform="translate(1.9 66.01)"/><polyline class="cls-1" points="852.35 368.31 878.23 340.51 913.23 340.51 978.73 270.51 990.23 270.51 1026.22 228.59"/><polyline class="cls-1" points="1026.22 262.91 1000.73 288.51 986.23 288.51 919.73 360.51 882.23 360.51 829.23 420.09"/><polyline class="cls-1" points="1026.41 281.41 932.73 381.51 902.23 381.51 867.23 419.51 840.23 419.51 777.48 487.59"/><polyline class="cls-1" points="808.69 477.98 843.73 441.51 866.23 441.51 906.23 399.51 939.23 399.51 993.23 341.51 1018.23 341.51 1026.51 331.59"/><polyline class="cls-1" points="1026.51 359.66 1022.23 364.51 1000.23 364.51 927.73 440.51 896.23 440.51 811.23 531.16 724.23 623.66"/><polyline class="cls-1" points="810.92 551.26 847.23 511.51 871.23 511.51 914.23 462.51 935.23 462.51 1013.23 378.51 1025.89 378.51"/><polyline class="cls-1" points="1026.76 397.66 954.23 474.51 942.23 474.51 890.73 529.09"/><path class="cls-1" d="M1024.33,380.81s-12,17.5-13.5,16.75-23.17,0-23.17,0L953.5,434.81v20.5l-42.83,45.5" transform="translate(1.9 66.01)"/><line class="cls-1" x1="1026.23" y1="474.82" x2="965.23" y2="539.82"/><line class="cls-2" x1="1006.73" y1="529.32" x2="1026.76" y2="510.32"/><rect class="cls-2" x="1000.58" y="460.22" width="8.5" height="8.5" rx="4.25" ry="4.25" transform="translate(2011.56 994.96) rotate(180)"/><rect class="cls-2" x="959.08" y="469.56" width="8.5" height="8.5" rx="4.25" ry="4.25" transform="translate(1928.56 1013.63) rotate(180)"/><rect class="cls-2" x="884.58" y="459.06" width="8.5" height="8.5" rx="4.25" ry="4.25" transform="translate(1779.56 992.63) rotate(-180)"/><rect class="cls-2" x="823.08" y="350.06" width="8.5" height="8.5" rx="4.25" ry="4.25" transform="translate(1656.56 774.63) rotate(-180)"/><rect class="cls-2" x="921.58" y="369.31" width="8.5" height="8.5" rx="4.25" ry="4.25" transform="translate(1853.56 813.13) rotate(180)"/><rect class="cls-2" x="948.08" y="404.56" width="8.5" height="8.5" rx="4.25" ry="4.25" transform="translate(1906.56 883.63) rotate(-180)"/><rect class="cls-2" x="806.77" y="479.56" width="8.5" height="8.5" rx="4.25" ry="4.25" transform="translate(1623.93 1033.63) rotate(180)"/><rect class="cls-2" x="906.58" y="496.56" width="8.5" height="8.5" rx="4.25" ry="4.25" transform="translate(1823.56 1067.63) rotate(180)"/><rect class="cls-2" x="963.27" y="271.43" width="8.5" height="8.5" rx="4.25" ry="4.25" transform="translate(1936.93 617.38) rotate(-180)"/><rect class="cls-2" x="1010.6" y="270.31" width="8.5" height="8.5" rx="4.25" ry="4.25" transform="translate(2031.59 615.13) rotate(180)"/><rect class="cls-2" x="846.77" y="298.2" width="8.5" height="8.5" rx="4.25" ry="4.25" transform="translate(1703.93 670.91) rotate(-180)"/><rect class="cls-2" x="771.33" y="286.56" width="8.5" height="8.5" rx="4.25" ry="4.25" transform="translate(1553.06 647.63) rotate(-180)"/><rect class="cls-2" x="823.08" y="261.56" width="8.5" height="8.5" rx="4.25" ry="4.25" transform="translate(1656.56 597.63) rotate(-180)"/><rect class="cls-2" x="865.08" y="252.06" width="8.5" height="8.5" rx="4.25" ry="4.25" transform="translate(1740.56 578.63) rotate(180)"/><rect class="cls-2" x="811.02" y="196.52" width="8.5" height="8.5" rx="4.25" ry="4.25" transform="translate(1632.43 467.55) rotate(180)"/><rect class="cls-2" x="752.75" y="245.16" width="8.5" height="8.5" rx="4.25" ry="4.25" transform="translate(1515.89 564.84) rotate(-180)"/><rect class="cls-2" x="636.08" y="207.06" width="8.5" height="8.5" rx="4.25" ry="4.25" transform="translate(1282.56 488.63) rotate(180)"/><rect class="cls-2" x="666.46" y="200.77" width="8.5" height="8.5" rx="4.25" ry="4.25" transform="translate(1343.31 476.05) rotate(180)"/><rect class="cls-2" x="686.46" y="141.78" width="8.5" height="8.5" rx="4.25" ry="4.25" transform="translate(1383.31 358.07) rotate(180)"/><rect class="cls-2" x="785.58" y="161.56" width="8.5" height="8.5" rx="4.25" ry="4.25" transform="translate(1581.56 397.63) rotate(-180)"/><rect class="cls-2" x="906.58" y="240.91" width="8.5" height="8.5" rx="4.25" ry="4.25" transform="translate(1823.56 556.34) rotate(180)"/><rect class="cls-2" x="985.33" y="200.77" width="8.5" height="8.5" rx="4.25" ry="4.25" transform="translate(1981.06 476.05) rotate(180)"/><rect class="cls-2" x="711.83" y="87.91" width="8.5" height="8.5" rx="4.25" ry="4.25" transform="translate(1434.06 250.34) rotate(180)"/><rect class="cls-2" x="827.33" y="64.85" width="8.5" height="8.5" rx="4.25" ry="4.25" transform="translate(1665.06 204.21) rotate(-180)"/><rect class="cls-2" x="959.08" y="39.96" width="8.5" height="8.5" rx="4.25" ry="4.25" transform="translate(1928.56 154.43) rotate(180)"/><rect class="cls-2" x="963.27" y="98.56" width="8.5" height="8.5" rx="4.25" ry="4.25" transform="translate(1936.93 271.63) rotate(-180)"/><rect class="cls-2" x="773.33" y="7.28" width="8.5" height="8.5" rx="4.25" ry="4.25" transform="translate(1557.06 89.07) rotate(-180)"/><rect class="cls-2" x="846.21" y="-9" width="8.5" height="8.5" rx="4.25" ry="4.25" transform="translate(1702.81 56.5) rotate(180)"/><rect class="cls-2" x="876.08" y="63.56" width="8.5" height="8.5" rx="4.25" ry="4.25" transform="translate(1762.56 201.63) rotate(180)"/><rect class="cls-2" x="723.96" y="-45.06" width="8.5" height="8.5" rx="4.25" ry="4.25" transform="translate(1458.31 -15.61) rotate(180)"/><rect class="cls-2" x="680.08" y="43.56" width="8.5" height="8.5" rx="4.25" ry="4.25" transform="translate(1370.56 161.63) rotate(180)"/><rect class="cls-2" x="578.05" y="30.62" width="8.5" height="8.5" rx="4.25" ry="4.25" transform="translate(1166.5 135.75) rotate(-180)"/><rect class="cls-2" x="578.05" y="-43.37" width="8.5" height="8.5" rx="4.25" ry="4.25" transform="translate(1166.5 -12.23) rotate(-180)"/><rect class="cls-2" x="546.89" y="-35.47" width="8.5" height="8.5" rx="4.25" ry="4.25" transform="translate(1104.17 3.56) rotate(-180)"/><rect class="cls-2" x="762.33" y="39.96" width="8.5" height="8.5" rx="4.25" ry="4.25" transform="translate(1535.06 154.43) rotate(180)"/><rect class="cls-2" x="734.08" y="17.36" width="8.5" height="8.5" rx="4.25" ry="4.25" transform="translate(1478.56 109.23) rotate(180)"/><rect class="cls-2" x="578.05" y="7.28" width="8.5" height="8.5" rx="4.25" ry="4.25" transform="translate(1166.5 89.07) rotate(180)"/><rect class="cls-2" x="657.77" y="5.38" width="8.5" height="8.5" rx="4.25" ry="4.25" transform="translate(1133.04 -391.57) rotate(134.28)"/><rect class="cls-2" x="648.87" y="14.5" width="8.5" height="8.5" rx="4.25" ry="4.25" transform="translate(1000.22 -469.99) rotate(120.25)"/><rect class="cls-2" x="638.74" y="24.88" width="8.5" height="8.5" rx="4.25" ry="4.25" transform="translate(993.96 -445.63) rotate(120.25)"/><rect class="cls-2" x="628.26" y="35.63" width="8.5" height="8.5" rx="4.25" ry="4.25" transform="translate(987.48 -420.41) rotate(120.25)"/><rect class="cls-2" x="619.05" y="45.07" width="8.5" height="8.5" rx="4.25" ry="4.25" transform="translate(981.79 -398.27) rotate(120.25)"/><rect class="cls-2" x="608.53" y="55.86" width="8.5" height="8.5" rx="4.25" ry="4.25" transform="translate(975.29 -372.94) rotate(120.25)"/><rect class="cls-2" x="725.17" y="29.27" width="7.44" height="7.44" rx="3.72" ry="3.72" transform="translate(1263.32 -399.76) rotate(134.28)"/><rect class="cls-2" x="717.37" y="37.26" width="7.44" height="7.44" rx="3.72" ry="3.72" transform="translate(1121.64 -495.28) rotate(120.25)"/><rect class="cls-2" x="708.51" y="46.35" width="7.44" height="7.44" rx="3.72" ry="3.72" transform="translate(1116.16 -473.96) rotate(120.25)"/><rect class="cls-2" x="699.33" y="55.76" width="7.44" height="7.44" rx="3.72" ry="3.72" transform="translate(1110.49 -451.88) rotate(120.25)"/><rect class="cls-2" x="691.27" y="64.02" width="7.44" height="7.44" rx="3.72" ry="3.72" transform="translate(1105.5 -432.49) rotate(120.25)"/><rect class="cls-2" x="682.05" y="73.47" width="7.44" height="7.44" rx="3.72" ry="3.72" transform="translate(1099.81 -410.32) rotate(120.25)"/><rect class="cls-2" x="853.67" y="264.98" width="7.44" height="7.44" rx="3.72" ry="3.72" transform="translate(1650.29 -91.46) rotate(134.28)"/><rect class="cls-2" x="845.87" y="272.98" width="7.44" height="7.44" rx="3.72" ry="3.72" transform="translate(1518.49 -251.83) rotate(120.25)"/><rect class="cls-2" x="837.01" y="282.06" width="7.44" height="7.44" rx="3.72" ry="3.72" transform="translate(1513.01 -230.51) rotate(120.25)"/><rect class="cls-2" x="827.83" y="291.47" width="7.44" height="7.44" rx="3.72" ry="3.72" transform="translate(1507.34 -208.43) rotate(120.25)"/><rect class="cls-2" x="819.77" y="299.74" width="7.44" height="7.44" rx="3.72" ry="3.72" transform="translate(1502.36 -189.04) rotate(120.25)"/><rect class="cls-2" x="810.55" y="309.19" width="7.44" height="7.44" rx="3.72" ry="3.72" transform="translate(1496.66 -166.87) rotate(120.25)"/><rect class="cls-2" x="760.64" y="429.71" width="7.44" height="7.44" rx="3.72" ry="3.72" transform="translate(1590.55 195.06) rotate(130.18)"/><rect class="cls-2" x="753.43" y="438.24" width="7.44" height="7.44" rx="3.72" ry="3.72" transform="translate(1489.39 22.98) rotate(116.14)"/><rect class="cls-2" x="745.24" y="447.94" width="7.44" height="7.44" rx="3.72" ry="3.72" transform="translate(1486.3 44.31) rotate(116.14)"/><rect class="cls-2" x="736.76" y="457.98" width="7.44" height="7.44" rx="3.72" ry="3.72" transform="translate(1483.1 66.39) rotate(116.14)"/><rect class="cls-2" x="729.32" y="466.8" width="7.44" height="7.44" rx="3.72" ry="3.72" transform="translate(1480.29 85.78) rotate(116.14)"/><rect class="cls-2" x="720.8" y="476.89" width="7.44" height="7.44" rx="3.72" ry="3.72" transform="translate(1477.08 107.95) rotate(116.14)"/><rect class="cls-2" x="894.95" y="511.14" width="7.44" height="7.44" rx="3.72" ry="3.72" transform="translate(1896.62 297.02) rotate(134.28)"/><rect class="cls-2" x="887.16" y="519.13" width="7.44" height="7.44" rx="3.72" ry="3.72" transform="translate(1793.22 82.66) rotate(120.25)"/><rect class="cls-2" x="878.29" y="528.22" width="7.44" height="7.44" rx="3.72" ry="3.72" transform="matrix(-0.5, 0.86, -0.86, -0.5, 1787.74, 103.99)"/><rect class="cls-2" x="869.12" y="537.63" width="7.44" height="7.44" rx="3.72" ry="3.72" transform="translate(1782.07 126.06) rotate(120.25)"/><rect class="cls-2" x="861.06" y="545.9" width="7.44" height="7.44" rx="3.72" ry="3.72" transform="translate(1777.09 145.45) rotate(120.25)"/><rect class="cls-2" x="851.84" y="555.35" width="7.44" height="7.44" rx="3.72" ry="3.72" transform="translate(1771.39 167.62) rotate(120.25)"/><rect class="cls-2" x="802.55" y="407.87" width="8.5" height="8.5" rx="4.25" ry="4.25" transform="translate(1615.49 890.25) rotate(180)"/><rect class="cls-2" x="771.33" y="417.56" width="8.5" height="8.5" rx="4.25" ry="4.25" transform="translate(1553.06 909.63) rotate(-180)"/><rect class="cls-1" x="997.16" y="456.81" width="15.33" height="15.33" rx="7.67" ry="7.67" transform="translate(2011.56 994.96) rotate(180)"/><rect class="cls-1" x="944.66" y="401.14" width="15.33" height="15.33" rx="7.67" ry="7.67" transform="translate(1906.56 883.63) rotate(-180)"/><rect class="cls-1" x="918.16" y="365.89" width="15.33" height="15.33" rx="7.67" ry="7.67" transform="translate(1853.56 813.13) rotate(-180)"/><rect class="cls-1" x="903.16" y="493.14" width="15.33" height="15.33" rx="7.67" ry="7.67" transform="translate(1823.56 1067.63) rotate(-180)"/><rect class="cls-1" x="803.35" y="476.14" width="15.33" height="15.33" rx="7.67" ry="7.67" transform="translate(1623.93 1033.63) rotate(180)"/><rect class="cls-1" x="767.91" y="414.14" width="15.33" height="15.33" rx="7.67" ry="7.67" transform="translate(1553.06 909.63) rotate(180)"/><polyline class="cls-1" points="1022.41 537.41 928.73 637.51 898.23 637.51 863.23 675.51 836.23 675.51 773.48 743.59"/><polyline class="cls-1" points="804.69 733.98 839.73 697.51 862.23 697.51 902.23 655.51 935.23 655.51 989.23 597.51 1014.23 597.51 1022.51 587.59"/><polyline class="cls-1" points="1022.51 615.66 1018.23 620.51 996.23 620.51 923.73 696.51 892.23 696.51 807.23 787.16 720.23 879.66"/><polyline class="cls-1" points="806.92 807.26 843.23 767.51 867.23 767.51 910.23 718.51 931.23 718.51 1009.23 634.51 1021.89 634.51"/><polyline class="cls-1" points="1022.76 653.66 950.23 730.51 938.23 730.51 886.73 785.09"/><path class="cls-1" d="M1020.33,636.81s-12,17.5-13.5,16.75-23.17,0-23.17,0L949.5,690.81v20.5l-42.83,45.5" transform="translate(1.9 66.01)"/><line class="cls-1" x1="1022.23" y1="730.82" x2="961.23" y2="795.82"/><line class="cls-2" x1="1002.73" y1="785.32" x2="1022.76" y2="766.32"/><rect class="cls-2" x="996.58" y="716.22" width="8.5" height="8.5" rx="4.25" ry="4.25" transform="translate(2003.56 1506.96) rotate(180)"/><rect class="cls-2" x="955.08" y="725.56" width="8.5" height="8.5" rx="4.25" ry="4.25" transform="translate(1920.56 1525.63) rotate(180)"/><rect class="cls-2" x="880.58" y="715.06" width="8.5" height="8.5" rx="4.25" ry="4.25" transform="translate(1771.56 1504.63) rotate(-180)"/><rect class="cls-2" x="917.58" y="625.31" width="8.5" height="8.5" rx="4.25" ry="4.25" transform="translate(1845.56 1325.13) rotate(-180)"/><rect class="cls-2" x="944.08" y="660.56" width="8.5" height="8.5" rx="4.25" ry="4.25" transform="translate(1898.56 1395.63) rotate(180)"/><rect class="cls-2" x="802.77" y="735.56" width="8.5" height="8.5" rx="4.25" ry="4.25" transform="translate(1615.93 1545.63) rotate(180)"/><rect class="cls-2" x="902.58" y="752.56" width="8.5" height="8.5" rx="4.25" ry="4.25" transform="translate(1815.56 1579.63) rotate(-180)"/><rect class="cls-2" x="756.64" y="685.71" width="7.44" height="7.44" rx="3.72" ry="3.72" transform="translate(1779.56 619.28) rotate(130.18)"/><rect class="cls-2" x="749.43" y="694.24" width="7.44" height="7.44" rx="3.72" ry="3.72" transform="translate(1713.45 395.36) rotate(116.14)"/><rect class="cls-2" x="741.24" y="703.94" width="7.44" height="7.44" rx="3.72" ry="3.72" transform="translate(1710.35 416.69) rotate(116.14)"/><rect class="cls-2" x="732.76" y="713.98" width="7.44" height="7.44" rx="3.72" ry="3.72" transform="translate(1707.15 438.77) rotate(116.14)"/><rect class="cls-2" x="725.32" y="722.8" width="7.44" height="7.44" rx="3.72" ry="3.72" transform="translate(1704.34 458.16) rotate(116.14)"/><rect class="cls-2" x="716.8" y="732.89" width="7.44" height="7.44" rx="3.72" ry="3.72" transform="translate(1701.13 480.33) rotate(116.14)"/><rect class="cls-2" x="890.95" y="767.14" width="7.44" height="7.44" rx="3.72" ry="3.72" transform="translate(2073.1 734.62) rotate(134.28)"/><rect class="cls-2" x="883.16" y="775.13" width="7.44" height="7.44" rx="3.72" ry="3.72" transform="translate(2008.35 471.08) rotate(120.25)"/><rect class="cls-2" x="874.29" y="784.22" width="7.44" height="7.44" rx="3.72" ry="3.72" transform="translate(2002.87 492.4) rotate(120.25)"/><rect class="cls-2" x="865.12" y="793.63" width="7.44" height="7.44" rx="3.72" ry="3.72" transform="translate(1997.2 514.48) rotate(120.25)"/><rect class="cls-2" x="857.06" y="801.9" width="7.44" height="7.44" rx="3.72" ry="3.72" transform="translate(1992.22 533.87) rotate(120.25)"/><rect class="cls-2" x="847.84" y="811.35" width="7.44" height="7.44" rx="3.72" ry="3.72" transform="translate(1986.52 556.04) rotate(120.25)"/><rect class="cls-2" x="798.55" y="663.87" width="8.5" height="8.5" rx="4.25" ry="4.25" transform="translate(1607.49 1402.25) rotate(-180)"/><rect class="cls-2" x="767.33" y="673.56" width="8.5" height="8.5" rx="4.25" ry="4.25" transform="translate(1545.06 1421.63) rotate(-180)"/><rect class="cls-1" x="993.16" y="712.81" width="15.33" height="15.33" rx="7.67" ry="7.67" transform="translate(2003.56 1506.96) rotate(-180)"/><rect class="cls-1" x="940.66" y="657.14" width="15.33" height="15.33" rx="7.67" ry="7.67" transform="translate(1898.56 1395.63) rotate(180)"/><rect class="cls-1" x="914.16" y="621.89" width="15.33" height="15.33" rx="7.67" ry="7.67" transform="translate(1845.56 1325.13) rotate(180)"/><rect class="cls-1" x="899.16" y="749.14" width="15.33" height="15.33" rx="7.67" ry="7.67" transform="translate(1815.56 1579.63) rotate(-180)"/><rect class="cls-1" x="799.35" y="732.14" width="15.33" height="15.33" rx="7.67" ry="7.67" transform="translate(1615.93 1545.63) rotate(180)"/><rect class="cls-1" x="763.91" y="670.14" width="15.33" height="15.33" rx="7.67" ry="7.67" transform="translate(1545.06 1421.63) rotate(180)"/><rect class="cls-1" x="959.85" y="268.02" width="15.33" height="15.33" rx="7.67" ry="7.67" transform="translate(1936.93 617.38) rotate(180)"/><rect class="cls-1" x="1007.18" y="266.89" width="15.33" height="15.33" rx="7.67" ry="7.67" transform="translate(2031.59 615.13) rotate(180)"/><rect class="cls-1" x="843.35" y="294.79" width="15.33" height="15.33" rx="7.67" ry="7.67" transform="translate(1703.93 670.91) rotate(180)"/><rect class="cls-1" x="861.66" y="248.79" width="15.33" height="15.33" rx="7.67" ry="7.67" transform="translate(1740.56 578.93) rotate(-180)"/><rect class="cls-1" x="767.91" y="283.14" width="15.33" height="15.33" rx="7.67" ry="7.67" transform="translate(1553.06 647.63) rotate(-180)"/><rect class="cls-1" x="807.6" y="193.04" width="15.33" height="15.33" rx="7.67" ry="7.67" transform="translate(1632.43 467.42) rotate(-180)"/><rect class="cls-1" x="632.66" y="203.64" width="15.33" height="15.33" rx="7.67" ry="7.67" transform="translate(1282.56 488.63) rotate(180)"/><rect class="cls-1" x="708.41" y="84.5" width="15.33" height="15.33" rx="7.67" ry="7.67" transform="translate(1434.06 250.34) rotate(-180)"/><rect class="cls-1" x="823.91" y="61.43" width="15.33" height="15.33" rx="7.67" ry="7.67" transform="translate(1665.06 204.21) rotate(-180)"/><rect class="cls-1" x="782.16" y="158.14" width="15.33" height="15.33" rx="7.67" ry="7.67" transform="translate(1581.56 397.63) rotate(-180)"/><rect class="cls-1" x="872.66" y="60.14" width="15.33" height="15.33" rx="7.67" ry="7.67" transform="translate(1762.56 201.63) rotate(-180)"/><rect class="cls-1" x="955.77" y="35.89" width="15.33" height="15.33" rx="7.67" ry="7.67" transform="translate(1928.77 153.13) rotate(-180)"/><rect class="cls-1" x="959.91" y="95.14" width="15.33" height="15.33" rx="7.67" ry="7.67" transform="translate(1937.06 271.63) rotate(-180)"/><rect class="cls-1" x="843.35" y="-12.42" width="15.33" height="15.33" rx="7.67" ry="7.67" transform="translate(1703.93 56.5) rotate(180)"/><rect class="cls-1" x="769.91" y="3.86" width="15.33" height="15.33" rx="7.67" ry="7.67" transform="translate(1557.06 89.07) rotate(180)"/><rect class="cls-1" x="720.54" y="-48.48" width="15.33" height="15.33" rx="7.67" ry="7.67" transform="translate(1458.31 -15.61) rotate(180)"/><rect class="cls-1" x="676.66" y="40.89" width="15.33" height="15.33" rx="7.67" ry="7.67" transform="translate(1370.56 163.13) rotate(180)"/><rect class="cls-1" x="543.47" y="-38.89" width="15.33" height="15.33" rx="7.67" ry="7.67" transform="translate(1104.17 3.56) rotate(-180)"/><rect class="cls-1" x="574.64" y="27.2" width="15.33" height="15.33" rx="7.67" ry="7.67" transform="translate(1166.5 135.75) rotate(180)"/></svg>