<svg width="653" height="200" viewBox="0 0 653 200" fill="none" xmlns="http://www.w3.org/2000/svg">
<mask id="path-1-inside-1_791_4" fill="white">
<path fill-rule="evenodd" clip-rule="evenodd" d="M625.819 70.6204C604.552 74.6734 593.356 93.7163 601.269 112.38C606.078 123.724 615.644 129.395 629.956 129.393C638.374 129.39 641.717 128.436 649.472 123.822C653.101 121.665 653.101 121.822 649.46 118.501L646.487 115.785L643.841 117.013C626.328 125.136 609.365 114.621 611.783 97.1401C613.777 82.7301 632.149 76.1264 646.451 84.6774C647.8 85.4841 648.939 86.0897 648.987 86.0255C649.98 84.6217 652.552 79.548 652.693 78.7156C653.42 74.4037 635.031 68.8657 625.819 70.6204ZM478.43 71.7909C464.679 75.1399 458.668 89.766 467.496 98.3941C469.896 100.739 473.773 102.563 481.975 105.207C492.944 108.74 494.178 109.432 494.731 112.348C496.179 120.007 481.813 122.117 471.234 115.802C468.746 114.317 468.893 114.259 465.838 117.888C462.374 122.003 462.312 122.149 463.505 123.279C469.916 129.337 489.967 131.137 498.324 126.405C506.636 121.697 509.535 111.578 504.605 104.474C502.281 101.125 498.791 99.4169 486.037 95.3897C477.962 92.8389 475.901 91.5635 475.1 88.6126C473.127 81.3456 485.778 78.5295 494.75 84.2366C495.907 84.9748 497.446 85.9356 498.167 86.3722L499.477 87.1661L502.035 83.1666C505.095 78.3711 505.102 78.3198 502.663 76.7127C495.082 71.7225 486.151 69.9078 478.43 71.7909ZM504.23 71.7588C503.55 71.9835 503.882 72.5634 507.586 77.6221C509.63 80.4126 513.278 85.4242 515.691 88.7581C522.308 97.8998 526.515 103.555 528.039 105.366L529.412 106.994V117.236V127.991H541.283V116.754L541.462 105.516L545.239 99.7015C547.316 96.5045 549.476 93.1749 550.04 92.3039C551.356 90.2646 551.022 90.0699 554.833 95.1029L581.308 127.955H594.164V99.9498V72.174H588.539H582.914L583.08 91.7904C583.173 102.58 583.199 111.407 583.138 111.407C583.037 111.407 580.997 108.708 577.607 104.095C573.834 98.9611 557.005 76.931 554.952 74.4358C553.979 73.2546 552.276 72.5313 550.465 72.5313C549.116 72.5313 548.814 72.9144 542.461 82.6958C533.075 97.1529 534.363 95.9246 532.265 92.4152C529.561 87.8851 517.933 72.2746 517.048 71.9878C516.515 71.8145 504.698 71.6026 504.23 71.7588ZM226.516 100.023V128.224L242.973 128.072C261.667 127.899 262.285 127.826 267.737 125.158C284.905 116.759 285.997 87.1682 269.515 76.9845C262.328 72.5442 258.05 71.8188 239.017 71.8188H226.516V100.023ZM311.075 73.1562C310.812 73.8902 308.895 78.1849 306.819 82.6958C304.742 87.2067 302.489 92.182 301.811 93.7526C300.037 97.8612 297.963 102.381 295.509 107.482C294.328 109.935 293.07 112.663 292.711 113.547C292.353 114.428 291.17 116.919 290.085 119.08C288.228 122.774 286.232 127.201 286.232 127.623C286.232 127.728 289.312 127.811 293.078 127.811H299.925L301.468 124.514C302.316 122.699 303.469 120.05 304.03 118.629L305.051 116.042H318.778H332.506L333.706 118.984C334.364 120.604 335.465 123.251 336.151 124.869L337.399 127.811H344.196H350.992L350.405 126.474C350.084 125.74 349.367 124.013 348.812 122.641C348.26 121.267 347.545 119.637 347.226 119.016C346.907 118.396 345.374 115.025 343.82 111.527C342.266 108.028 340.231 103.478 339.296 101.42C338.361 99.3592 337.144 96.6329 336.589 95.3576C336.035 94.0822 334.744 91.1933 333.719 88.9379C332.696 86.6803 331.323 83.6331 330.667 82.1609C330.013 80.6907 328.657 77.7612 327.658 75.6513L325.836 71.8188H318.699H311.559L311.075 73.1562ZM344.088 76.7212C344.003 79.8006 344.092 81.7243 344.321 81.887C344.524 82.0325 349.179 82.1523 354.668 82.1544L364.649 82.1609L364.741 105.075L364.834 127.991L370.858 128.087L376.884 128.186V104.996V81.8035H385.879H394.87V76.8111V71.8188H369.546H344.219L344.088 76.7212ZM412.71 73.0663C412.509 73.8581 411.358 76.4324 405.134 90.0078C404.279 91.8695 402.654 95.4817 401.52 98.0324C399.386 102.834 396.565 108.892 391.469 119.609C388.561 125.725 387.676 127.683 387.676 128.008C387.676 128.096 390.804 128.169 394.626 128.169H401.577L403.1 124.691C403.938 122.778 405.06 120.129 405.593 118.802L406.562 116.391L420.342 116.485L434.119 116.577L436.439 122.284C437.712 125.423 438.757 128.029 438.757 128.079C438.759 128.128 441.852 128.169 445.632 128.169C450.997 128.169 452.461 128.07 452.307 127.723C452.197 127.477 451.386 125.592 450.505 123.531C449.625 121.473 447.535 116.737 445.862 113.012C440.471 101.005 438.362 96.312 436.959 93.2177C436.204 91.5507 434.691 88.1804 433.596 85.7281C430.995 79.9011 428.621 74.7825 427.848 73.3338L427.229 72.174H420.083H412.936L412.71 73.0663ZM253.066 82.1523C263.482 83.3228 268.246 89.0107 268.246 100.284C268.246 113.782 263.135 118.139 246.932 118.456L238.747 118.616V100.241V81.8655L244.258 81.8228C247.288 81.8014 251.253 81.949 253.066 82.1523ZM321.425 90.0078C322.599 93.0465 324.528 97.812 325.713 100.596C327.434 104.634 327.764 105.698 327.347 105.858C325.871 106.419 309.974 105.886 309.974 105.276C309.974 104.925 316.406 88.8052 317.764 85.7537C318.85 83.3121 318.834 83.295 321.425 90.0078ZM423.087 90.7525C424.345 93.9709 426.273 98.73 427.374 101.328L429.372 106.051L428.425 106.286C427.391 106.545 411.781 106.179 411.49 105.89C411.281 105.68 411.699 104.574 416.083 93.7526C419.934 84.2515 420.001 84.1082 420.46 84.5618C420.648 84.748 421.829 87.5341 423.087 90.7525Z"/>
</mask>
<path fill-rule="evenodd" clip-rule="evenodd" d="M625.819 70.6204C604.552 74.6734 593.356 93.7163 601.269 112.38C606.078 123.724 615.644 129.395 629.956 129.393C638.374 129.39 641.717 128.436 649.472 123.822C653.101 121.665 653.101 121.822 649.46 118.501L646.487 115.785L643.841 117.013C626.328 125.136 609.365 114.621 611.783 97.1401C613.777 82.7301 632.149 76.1264 646.451 84.6774C647.8 85.4841 648.939 86.0897 648.987 86.0255C649.98 84.6217 652.552 79.548 652.693 78.7156C653.42 74.4037 635.031 68.8657 625.819 70.6204ZM478.43 71.7909C464.679 75.1399 458.668 89.766 467.496 98.3941C469.896 100.739 473.773 102.563 481.975 105.207C492.944 108.74 494.178 109.432 494.731 112.348C496.179 120.007 481.813 122.117 471.234 115.802C468.746 114.317 468.893 114.259 465.838 117.888C462.374 122.003 462.312 122.149 463.505 123.279C469.916 129.337 489.967 131.137 498.324 126.405C506.636 121.697 509.535 111.578 504.605 104.474C502.281 101.125 498.791 99.4169 486.037 95.3897C477.962 92.8389 475.901 91.5635 475.1 88.6126C473.127 81.3456 485.778 78.5295 494.75 84.2366C495.907 84.9748 497.446 85.9356 498.167 86.3722L499.477 87.1661L502.035 83.1666C505.095 78.3711 505.102 78.3198 502.663 76.7127C495.082 71.7225 486.151 69.9078 478.43 71.7909ZM504.23 71.7588C503.55 71.9835 503.882 72.5634 507.586 77.6221C509.63 80.4126 513.278 85.4242 515.691 88.7581C522.308 97.8998 526.515 103.555 528.039 105.366L529.412 106.994V117.236V127.991H541.283V116.754L541.462 105.516L545.239 99.7015C547.316 96.5045 549.476 93.1749 550.04 92.3039C551.356 90.2646 551.022 90.0699 554.833 95.1029L581.308 127.955H594.164V99.9498V72.174H588.539H582.914L583.08 91.7904C583.173 102.58 583.199 111.407 583.138 111.407C583.037 111.407 580.997 108.708 577.607 104.095C573.834 98.9611 557.005 76.931 554.952 74.4358C553.979 73.2546 552.276 72.5313 550.465 72.5313C549.116 72.5313 548.814 72.9144 542.461 82.6958C533.075 97.1529 534.363 95.9246 532.265 92.4152C529.561 87.8851 517.933 72.2746 517.048 71.9878C516.515 71.8145 504.698 71.6026 504.23 71.7588ZM226.516 100.023V128.224L242.973 128.072C261.667 127.899 262.285 127.826 267.737 125.158C284.905 116.759 285.997 87.1682 269.515 76.9845C262.328 72.5442 258.05 71.8188 239.017 71.8188H226.516V100.023ZM311.075 73.1562C310.812 73.8902 308.895 78.1849 306.819 82.6958C304.742 87.2067 302.489 92.182 301.811 93.7526C300.037 97.8612 297.963 102.381 295.509 107.482C294.328 109.935 293.07 112.663 292.711 113.547C292.353 114.428 291.17 116.919 290.085 119.08C288.228 122.774 286.232 127.201 286.232 127.623C286.232 127.728 289.312 127.811 293.078 127.811H299.925L301.468 124.514C302.316 122.699 303.469 120.05 304.03 118.629L305.051 116.042H318.778H332.506L333.706 118.984C334.364 120.604 335.465 123.251 336.151 124.869L337.399 127.811H344.196H350.992L350.405 126.474C350.084 125.74 349.367 124.013 348.812 122.641C348.26 121.267 347.545 119.637 347.226 119.016C346.907 118.396 345.374 115.025 343.82 111.527C342.266 108.028 340.231 103.478 339.296 101.42C338.361 99.3592 337.144 96.6329 336.589 95.3576C336.035 94.0822 334.744 91.1933 333.719 88.9379C332.696 86.6803 331.323 83.6331 330.667 82.1609C330.013 80.6907 328.657 77.7612 327.658 75.6513L325.836 71.8188H318.699H311.559L311.075 73.1562ZM344.088 76.7212C344.003 79.8006 344.092 81.7243 344.321 81.887C344.524 82.0325 349.179 82.1523 354.668 82.1544L364.649 82.1609L364.741 105.075L364.834 127.991L370.858 128.087L376.884 128.186V104.996V81.8035H385.879H394.87V76.8111V71.8188H369.546H344.219L344.088 76.7212ZM412.71 73.0663C412.509 73.8581 411.358 76.4324 405.134 90.0078C404.279 91.8695 402.654 95.4817 401.52 98.0324C399.386 102.834 396.565 108.892 391.469 119.609C388.561 125.725 387.676 127.683 387.676 128.008C387.676 128.096 390.804 128.169 394.626 128.169H401.577L403.1 124.691C403.938 122.778 405.06 120.129 405.593 118.802L406.562 116.391L420.342 116.485L434.119 116.577L436.439 122.284C437.712 125.423 438.757 128.029 438.757 128.079C438.759 128.128 441.852 128.169 445.632 128.169C450.997 128.169 452.461 128.07 452.307 127.723C452.197 127.477 451.386 125.592 450.505 123.531C449.625 121.473 447.535 116.737 445.862 113.012C440.471 101.005 438.362 96.312 436.959 93.2177C436.204 91.5507 434.691 88.1804 433.596 85.7281C430.995 79.9011 428.621 74.7825 427.848 73.3338L427.229 72.174H420.083H412.936L412.71 73.0663ZM253.066 82.1523C263.482 83.3228 268.246 89.0107 268.246 100.284C268.246 113.782 263.135 118.139 246.932 118.456L238.747 118.616V100.241V81.8655L244.258 81.8228C247.288 81.8014 251.253 81.949 253.066 82.1523ZM321.425 90.0078C322.599 93.0465 324.528 97.812 325.713 100.596C327.434 104.634 327.764 105.698 327.347 105.858C325.871 106.419 309.974 105.886 309.974 105.276C309.974 104.925 316.406 88.8052 317.764 85.7537C318.85 83.3121 318.834 83.295 321.425 90.0078ZM423.087 90.7525C424.345 93.9709 426.273 98.73 427.374 101.328L429.372 106.051L428.425 106.286C427.391 106.545 411.781 106.179 411.49 105.89C411.281 105.68 411.699 104.574 416.083 93.7526C419.934 84.2515 420.001 84.1082 420.46 84.5618C420.648 84.748 421.829 87.5341 423.087 90.7525Z" fill="white" stroke="white" stroke-width="2" mask="url(#path-1-inside-1_791_4)"/>
<path fill-rule="evenodd" clip-rule="evenodd" d="M87.0785 0.0600918C84.8413 0.240744 80.7779 0.776421 80.5184 0.925193C80.3481 1.02228 81.5415 1.09425 83.4126 1.09908C108.2 1.16526 125.733 8.52079 134.044 22.3402C137.871 28.7026 137.895 29.0741 138.103 84.2797C138.163 100.113 138.26 115.111 138.32 117.609L138.428 122.149L137.49 120.41C134.96 115.721 106.118 57.7978 105.407 55.9792C105.051 55.0662 104.21 51.8642 103.936 50.3712C103.887 50.1055 103.754 49.5404 103.642 49.1153C103.394 48.1788 103.304 47.6537 102.986 45.2511C102.915 44.7198 102.833 44.1547 102.803 43.9953C102.773 43.8359 102.686 43.1273 102.611 42.4206L102.473 41.1357L99.5516 41.0251C97.9443 40.9647 94.437 40.8672 91.7575 40.8087L86.8856 40.7029V41.3111C86.8856 41.9139 86.8784 41.9182 86.1042 41.7941C84.9851 41.6149 81.9529 40.6208 79.2642 39.5514C64.1493 33.5397 48.0291 35.2245 32.4747 44.4406C30.2794 45.7414 26.8792 48.0715 26.8792 48.2754C26.8792 48.3657 26.7828 48.4391 26.6651 48.4391C26.4755 48.4391 25.0443 49.5312 24.1437 50.3625C23.9662 50.5267 23.4453 50.9644 22.9861 51.3353C4.71404 66.1082 -4.03029 93.5504 1.78366 117.874C6.3647 137.04 21.113 154.864 38.3079 162.017C50.11 166.927 65.36 167.55 74.9996 163.517C75.3286 163.379 75.6638 163.254 75.7439 163.238C78.463 162.705 87.4644 155.728 87.4644 154.152C87.4644 154.031 87.5513 153.932 87.6574 153.932C87.7635 153.932 87.8503 153.802 87.8503 153.642C87.8503 153.483 87.9203 153.353 88.0061 153.353C88.092 153.353 88.7933 152.07 89.5651 150.503C90.3364 148.935 91.0962 147.414 91.2529 147.122C91.4097 146.829 91.4878 146.59 91.4261 146.59C91.3648 146.59 91.4565 146.373 91.6306 146.107C91.8043 145.841 91.8824 145.624 91.8043 145.624C91.7261 145.624 91.7478 145.515 91.8525 145.383C92.3465 144.757 92.9287 142.351 92.9866 140.697C93.1419 136.248 93.3493 116.364 93.3493 105.881C93.3493 97.1755 93.4038 94.3571 93.5654 94.6749C101.188 109.663 118.049 142.178 122.426 150.332C128.13 160.959 129.235 163.584 129.736 167.698C130.47 173.736 127.356 180.152 121.344 184.986C120.592 185.591 119.947 186.155 119.912 186.239C119.876 186.323 119.763 186.392 119.66 186.392C119.557 186.392 118.978 186.728 118.373 187.138C112.779 190.94 107.289 192.931 95.9227 195.281C87.4934 197.024 78.6342 196.589 63.9525 193.712C60.2141 192.98 60.1837 193.044 63.6876 194.272C77.1042 198.976 89.6973 200.72 103.137 199.735C114.347 198.914 128.17 195.62 135.104 192.118C135.592 191.872 136.98 191.2 138.19 190.625C139.399 190.05 140.485 189.492 140.602 189.386C140.719 189.279 141.27 188.982 141.827 188.725C142.384 188.468 142.84 188.195 142.84 188.118C142.84 188.042 143.051 187.926 143.309 187.861C143.567 187.797 143.896 187.635 144.042 187.502C144.187 187.37 144.692 187.053 145.165 186.798C152.19 183.012 162.155 174.841 168.4 167.747C170.161 165.747 173.904 161.024 173.904 160.803C173.904 160.734 174.122 160.443 174.387 160.157C174.652 159.87 174.869 159.526 174.869 159.392C174.869 159.259 174.956 159.149 175.062 159.149C175.168 159.149 175.255 159.018 175.255 158.859C175.255 158.7 175.342 158.569 175.448 158.569C175.554 158.569 175.641 158.439 175.641 158.279C175.641 158.12 175.728 157.99 175.834 157.99C175.94 157.99 176.027 157.859 176.027 157.7C176.027 157.54 176.114 157.41 176.22 157.41C176.326 157.41 176.413 157.28 176.413 157.12C176.413 156.961 176.5 156.83 176.606 156.83C176.712 156.83 176.799 156.7 176.799 156.541C176.799 156.381 176.87 156.251 176.957 156.251C177.045 156.251 177.31 155.881 177.547 155.43C177.784 154.978 178.145 154.348 178.351 154.029C178.556 153.71 178.832 153.232 178.964 152.966C179.095 152.7 179.259 152.44 179.329 152.387C179.398 152.333 179.617 151.97 179.815 151.578C182.293 146.684 183.394 144.456 183.396 144.329C183.398 144.244 183.615 143.806 183.88 143.354C184.144 142.902 184.301 142.533 184.229 142.533C184.158 142.533 184.287 142.228 184.517 141.857C184.746 141.485 184.881 141.18 184.817 141.18C184.753 141.18 184.843 140.963 185.017 140.697C185.19 140.432 185.277 140.214 185.21 140.214C185.142 140.214 185.228 139.997 185.403 139.731C185.576 139.466 185.663 139.248 185.596 139.248C185.528 139.248 185.6 139.053 185.757 138.813C185.913 138.574 186.056 138.292 186.074 138.186C186.091 138.079 186.191 137.775 186.295 137.509C186.399 137.244 186.513 136.896 186.547 136.736C186.581 136.577 186.627 136.425 186.648 136.398C186.67 136.372 186.699 136.285 186.714 136.205C186.729 136.125 186.793 135.973 186.857 135.867C187 135.629 188.355 131.539 188.462 131.023C188.504 130.818 188.673 130.279 188.836 129.826C188.999 129.373 189.138 128.938 189.145 128.86C189.153 128.782 189.252 128.371 189.366 127.946C189.48 127.521 189.608 127.021 189.65 126.835C189.692 126.649 189.769 126.322 189.823 126.11C189.876 125.897 189.962 125.55 190.015 125.337C190.069 125.124 190.155 124.777 190.208 124.564C190.261 124.352 190.345 124.026 190.394 123.84C190.674 122.775 191.058 121.093 191.154 120.507C191.262 119.847 191.452 118.865 191.547 118.478C191.612 118.21 191.832 117.032 191.926 116.449C191.969 116.184 192.056 115.749 192.12 115.483C192.183 115.218 192.272 114.696 192.316 114.324C192.36 113.952 192.447 113.3 192.509 112.875C192.797 110.886 192.86 109.201 192.949 101.138C193.032 93.6702 192.877 87.5256 192.545 85.1491C192.509 84.8835 192.419 84.1879 192.345 83.6035C192.272 83.019 192.17 82.3954 192.119 82.2181C191.986 81.7593 191.854 81.1033 191.734 80.3034C191.64 79.676 190.437 74.3197 190.207 73.5082C190.068 73.0155 189.913 72.3687 189.801 71.8176C187.687 61.3596 179.157 44.4894 171.436 35.494C171.208 35.2283 170.488 34.3589 169.837 33.5619C168.533 31.9664 168.445 31.8669 166.258 29.5088C151.813 13.9278 130.403 2.51773 111.486 0.318028C109.684 0.108395 89.1667 -0.108002 87.0785 0.0600918ZM65.4898 58.6005C67.4824 58.9759 71.8391 60.4805 71.8338 60.792C71.8329 60.8519 71.1913 61.0959 70.4084 61.334C68.7481 61.8388 66.8061 63.1878 66.4294 64.0983C66.2331 64.5732 66.2037 72.0466 66.2818 101.708C66.3599 131.291 66.3296 139.012 66.1318 140.151C64.8053 147.802 52.586 146.617 46.4344 138.241C44.0732 135.026 43.5585 133.156 43.1765 126.4C43.1162 125.337 43.0318 123.859 42.9883 123.115C42.5634 115.823 42.4843 86.7707 42.8697 79.5823C43.1533 74.2888 43.3844 72.263 43.8291 71.1771C43.9511 70.8781 44.0515 70.5772 44.0515 70.5086C44.0515 70.3622 45.6457 67.1298 45.788 66.9873C45.9973 66.7777 46.7527 65.644 46.7527 65.5397C46.7527 65.2629 49.8616 62.2218 50.9011 61.4813C54.9983 58.5638 60.0221 57.5717 65.4898 58.6005Z" fill="#24ACDC"/>
</svg>
