<svg fill="none" xmlns="http://www.w3.org/2000/svg" viewBox="0 0 52 42"><path d="M40.82 1H11.19a2.31 2.31 0 0 0-2.31 2.31v6.88a2.31 2.31 0 0 0 2.31 2.31h29.63a2.31 2.31 0 0 0 2.31-2.31V3.31A2.31 2.31 0 0 0 40.82 1ZM40.82 13H11.19a2.31 2.31 0 0 0-2.31 2.31v6.88a2.31 2.31 0 0 0 2.31 2.31h29.63a2.31 2.31 0 0 0 2.31-2.31v-6.88A2.31 2.31 0 0 0 40.82 13Z" stroke="#26ACDD" stroke-width="2" stroke-miterlimit="10"/><path d="M14.39 8.45h5c2.57 0 2.58-4 0-4h-5c-2.57 0-2.58 4 0 4ZM29.22 8.37h9.17c2.57 0 2.58-4 0-4h-9.17c-2.57 0-2.58 4 0 4ZM14.39 21.45h5c2.57 0 2.58-4 0-4h-5c-2.57 0-2.58 4 0 4ZM29.22 21.37h9.17c2.57 0 2.58-4 0-4h-9.17c-2.57 0-2.58 4 0 4Z" fill="#26ACDD"/><path d="M25.63 31.38h-.01a4.33 4.33 0 0 0-4.33 4.33v.01a4.33 4.33 0 0 0 4.33 4.33h.01a4.33 4.33 0 0 0 4.33-4.33v-.01a4.33 4.33 0 0 0-4.33-4.33ZM25.61 23.81l.02 8.13M0 35.71h21.29M30 35.71h21.29" stroke="#26ACDD" stroke-width="2" stroke-miterlimit="10"/></svg>